<svg xmlns="http://www.w3.org/2000/svg" viewBox="0 0 735.48 296.65"><defs><style>.cls-1{fill:#b3b3b3;stroke:#000;stroke-miterlimit:10;stroke-width:2px;}</style></defs><g id="Capa_2" data-name="Capa 2"><g id="Capa_1-2" data-name="Capa 1"><path class="cls-1" d="M733.35,269.82l-5.78-1.05-65.72-49.95a11.64,11.64,0,0,0-7.36-15.24l-37.33,3.15a15.11,15.11,0,0,0-5.78,7.89c-2.22,7.46,2.7,13.63,3.16,14.19l-6.31,3.68-17.88-22.6Q598,198.84,605.6,187.8A9.29,9.29,0,0,0,593,175.71l-24.71,10.52c-.17-2.63-.35-5.26-.52-7.89L538.3,166.25a199.39,199.39,0,0,0-88.84-44.69q-.79-36.54-1.58-73.08a6.1,6.1,0,0,0-5.79-3.15,6.38,6.38,0,0,0-4.73,3.15l-1.05,70.45-14.72-3.15q-12.36-41.53-24.71-83.07l5.26-6.83-2.63-10.52-166.66-1v14.2l6.84,7.36,14.19.52a716.21,716.21,0,0,0-8.94,74.66c-1,15.55-1.52,30.47-1.57,44.68a78.14,78.14,0,0,0,.52,16.3c.94,6.74,2.49,11.18,0,14.2-1.63,2-4.31,2.5-6.31,2.63L236,142.59l-8.94-15.25L225,114.73l-5.79,1q-3.68,11.3-7.36,22.61h-11q-13.93-30.24-27.86-60.46L174,73.19q-2.1-4.47-4.21-8.93l-4.2-2.63q-9.74-22.08-19.45-44.16V7l-9.47-5.78L106.68,19,93,44.8,45.69,114.2l-4.21.53-4.2,5.78c.17,2.63.35,5.26.52,7.89L13.09,162.57,7.84,162C3.22,166,.91,168,1,169.4c.08,1.24,1.25,2.93,6.31,4.74L39.38,222c.18,2.45.35,4.9.53,7.36a8,8,0,0,0,8.41,4.2,7.6,7.6,0,0,0,4.73-3.68c.18-2.63.35-5.25.53-7.88l5.78-3.16A30.68,30.68,0,0,0,63.57,222c3.13,2,13.15,7.47,23.13,4.2,5.59-1.83,8.79-5.64,11.56-8.93,2.23-2.65,5.95-7.79,11-27.34,1.24-4.74,2.78-11.18,4.21-18.93,1.4-2.45,2.8-4.91,4.21-7.36a37.74,37.74,0,0,0-1.06-12.09c-.24-1-2-8-3.68-7.89s-.6,7.51-5.25,16.3c-1.61,3-3.58,6.64-7.36,7.89-2.41.79-3.77,0-5.79,1-3,1.5-4.19,5.26-4.73,8.41a177.9,177.9,0,0,1-22.08,7.89c-8.48,2.41-24.78,7-26.81,3.15-.51-1-.36-2.93,3.68-7.36L124.55,62.68q7.62,33.92,15.25,67.82l-1.05,89.9a16.4,16.4,0,0,0-4.74,11c0,7.43,5.9,13.08,11.57,15.25,8,3.07,15.26-1,16.3-1.58l22.08,1,1.58,8.41,29.44.53,1.05-7.89H235a57.17,57.17,0,0,0,12.09,24.71c10.3,12.19,22.86,16.33,29.44,18.4,6.19,1.95,26.46,8.34,48.37-1.57,22.61-10.24,31.3-30.75,33.64-36.28a70.22,70.22,0,0,0,4.21-13.67H378l2.62,6.84L440,247.21l5.79-4.2,7.88-.53a45.64,45.64,0,0,0,4.73,26.29c11.64,21.93,37.78,24,40.48,24.18,4.17.26,22.12,1.1,36.28-12.09,2.76-2.57,14.54-14.22,14.2-28.39-.08-3.15-.73-5.34-.53-10.51a56.52,56.52,0,0,1,3.68-17.88l45.74,56.25a9.56,9.56,0,0,0,4.2,10,9.81,9.81,0,0,0,8.42.53l10-10H635l14.72,14.72,84.64-13.67ZM24.14,181,16.77,172l15.78-3.15Zm33.64-55.2C48.86,140.25,41.32,152,36.23,159.94l-12.09,1.58q10-15,20-30l5.13-.8,5.39-7.09v-4.73c3.11-5.56,7.45-12.83,13.14-21,7.7-11.09,19.36-26,20.5-25.23C89.86,73.74,71,104.27,57.78,125.77ZM194,205.68h-5.26l-1.58-4.21L174,202a45.93,45.93,0,0,1,17.35-29.44A110.84,110.84,0,0,1,194,205.68Zm0-58.36c-1.26.79-12.07-13.27-20.51-26.28C162.83,104.65,149.53,80,139.8,45.33q2.35-6.57,4.73-13.14l14.19,32.07-2.1,6.83q1.84,4.2,3.68,8.41,2.1,1.32,4.21,2.63c3,7.17,7.58,18,13.67,31C188.34,134.91,195.05,146.64,194,147.32ZM329.06,248.26c-11.26,18.55-35.93,23.09-52.05,11-15.58-11.65-18.19-35.09-6.3-49.94,13.8-17.25,41.64-16,54.67-.53C334,219.05,335.37,234.55,329.06,248.26Zm71.5-132-9.46-7.36-5.78-1.57v-4.21l8.41-12.62a4.28,4.28,0,0,0-1.58-2.63c-3.8-2.57-12.51,4.31-21.56,11.57C363,105.59,353.75,113,355.35,116.3c.55,1.13,2.22,1.48,3.68,1.58a9.94,9.94,0,0,1,9.46-4.2,10.33,10.33,0,0,1,7.36,5.25c.7,3.16,1.4,6.31,2.11,9.47a86.16,86.16,0,0,1,21,56.78l-19.45,1-4.73-4.73-2.1-17.88a18.05,18.05,0,0,0-3.68-8.94c-1.46-1.8-3.38-3.36-10-6.31-11.16-5-13.69-4.07-16.3-7.36-3.36-4.22-.92-7.86-3.15-11.56-2.39-3.95-9.68-7.24-32.07-3.16.3-4.51.33-14.86-6.31-24.18a33.4,33.4,0,0,0-5.26-5.78l-1.05-20a19.16,19.16,0,0,0-15.25-1,97,97,0,0,0,1.05,28.91c.72,3.67,1.83,8,3.68,17.35,1.18,6,2.06,10.87,2.63,14.2a38.25,38.25,0,0,0-8.93.52,39.05,39.05,0,0,0-15.25,6.31c.66-18.41,1.84-37.71,3.68-57.83,1.59-17.35,3.55-34,5.78-49.94l91.48-.53,1.05,3.15,18.93-1,22.08,79.39ZM503.61,274a26.29,26.29,0,1,1,26.28-27.33A26.47,26.47,0,0,1,503.61,274Z"/></g></g></svg>